HIERARCHY
ROOT Hips
{
  OFFSET -32.5998 29.0326 120.673
  CHANNELS 6 Xposition Yposition Zposition Zrotation Xrotation Yrotation
  JOINT LeftUpLeg
  {
    OFFSET 8.64259 1.95398 -2.38835
    CHANNELS 3 Zrotation Xrotation Yrotation
    JOINT LeftLeg
    {
      OFFSET 43.7702 0 0
      CHANNELS 3 Zrotation Xrotation Yrotation
      JOINT LeftFoot
      {
        OFFSET 40.6238 0 0
        CHANNELS 3 Zrotation Xrotation Yrotation
        JOINT LeftToeBase
        {
          OFFSET 12.7242 0 0
          CHANNELS 3 Zrotation Xrotation Yrotation
          End Site
          {
            OFFSET 0 0 0
          }
        }
      }
    }
  }
  JOINT RightUpLeg
  {
    OFFSET -8.2249 1.95398 -2.59336
    CHANNELS 3 Zrotation Xrotation Yrotation
    JOINT RightLeg
    {
      OFFSET 43.5653 0 0
      CHANNELS 3 Zrotation Xrotation Yrotation
      JOINT RightFoot
      {
        OFFSET 40.6238 0 0
        CHANNELS 3 Zrotation Xrotation Yrotation
        JOINT RightToeBase
        {
          OFFSET 12.7242 0 0
          CHANNELS 3 Zrotation Xrotation Yrotation
          End Site
          {
            OFFSET 0 0 0
          }
        }
      }
    }
  }
  JOINT Spine
  {
    OFFSET 0.165834 0.87714 6.61349
    CHANNELS 3 Zrotation Xrotation Yrotation
    JOINT Spine1
    {
      OFFSET 7.38963 1.71661e-005 0
      CHANNELS 3 Zrotation Xrotation Yrotation
      JOINT Spine2
      {
        OFFSET 11.9445 1.14441e-005 0
        CHANNELS 3 Zrotation Xrotation Yrotation
        JOINT Spine3
        {
          OFFSET 14.7254 4.19617e-005 0
          CHANNELS 3 Zrotation Xrotation Yrotation
          JOINT Spine4
          {
            OFFSET 10.9679 0 0
            CHANNELS 3 Zrotation Xrotation Yrotation
            JOINT RightShoulder
            {
              OFFSET 2.46616 -1.6653 3.69651
              CHANNELS 3 Zrotation Xrotation Yrotation
              JOINT RightArm
              {
                OFFSET 13.0012 0 0
                CHANNELS 3 Zrotation Xrotation Yrotation
                JOINT RightForeArm
                {
                  OFFSET 28.7848 1.62311e-005 0
                  CHANNELS 3 Zrotation Xrotation Yrotation
                  JOINT RightHand
                  {
                    OFFSET 26.5688 1.62095e-005 0
                    CHANNELS 3 Zrotation Xrotation Yrotation
                    End Site
                    {
                      OFFSET 0 0 0
                    }
                  }
                }
              }
            }
            JOINT LeftShoulder
            {
              OFFSET 2.38034 -1.29275 -3.7523
              CHANNELS 3 Zrotation Xrotation Yrotation
              JOINT LeftArm
              {
                OFFSET 16.3182 6.07031e-005 0
                CHANNELS 3 Zrotation Xrotation Yrotation
                JOINT LeftForeArm
                {
                  OFFSET 27.0901 0 0
                  CHANNELS 3 Zrotation Xrotation Yrotation
                  JOINT LeftHand
                  {
                    OFFSET 24.5451 1.51738e-005 0
                    CHANNELS 3 Zrotation Xrotation Yrotation
                    End Site
                    {
                      OFFSET 0 0 0
                    }
                  }
                }
              }
            }
            JOINT Neck
            {
              OFFSET 5.0226 -0.0266342 0
              CHANNELS 3 Zrotation Xrotation Yrotation
              JOINT Head
              {
                OFFSET 6.69364 2.86102e-005 0
                CHANNELS 3 Zrotation Xrotation Yrotation
                End Site
                {
                  OFFSET 0 0 0
                }
              }
            }
          }
        }
      }
    }
  }
}
MOTION
Frames:	16
Frame Time:	0.0416667
-10.41 96.4269 155.585 160.296 -77.3753 161.342 -167.589 -14.0127 96.4061 -32.3828 21.7699 -0.164955 79.3512 13.3409 1.13904 28.2412 -3.96301 8.84589 175.309 11.997 94.1929 -22.8999 -8.68688 1.48713 61.5145 1.37925 0.428164 16.1938 3.40065 6.49386 -0.664079 8.1273 -90.6063 10.6097 -1.60145 -1.06205 -1.06062 -1.64665 -0.990532 -23.5973 -1.20827 -1.49423 -3.58462 -1.20826 -1.49424 92.3784 -29.4069 -102.202 43.2932 -8.52275 5.66263 -14.2994 -10.9651 -26.2993 -9.07816 -0.0581719 -4.68031 -88.0642 -45.6337 80.7941 -16.1596 22.4877 -25.9834 7.21015 -5.66692 -10.1691 -2.48817 -0.0923559 -5.28224 -17.0348 0.642573 -4.40854 -13.5114 0.375062 2.75314 
-9.26933 95.7338 145.965 177.022 -78.3737 174.293 -171.085 -12.1326 88.3029 -28.8382 13.0685 -2.02039 86.3774 16.4486 -1.90467 20.2757 -9.80568 11.7626 174.761 15.4621 90.5469 -17.8037 -7.79306 1.02317 59.0603 1.92818 0.0724819 23.1641 1.61278 3.12969 -0.303616 8.35283 -90.1146 10.1677 -0.657195 -0.171851 -1.50307 -0.664118 -0.142774 -24.0392 -0.57516 -0.361427 -4.02656 -0.575165 -0.361435 91.9481 -30.4024 -102.747 40.7339 -10.3756 1.96903 -16.3577 -12.5686 -29.9693 -8.9558 -0.0716169 -4.48461 -88.3559 -46.0183 80.4129 -13.6002 23.067 -25.6135 7.03167 -4.7991 -9.24954 -2.03825 -0.0912348 -4.60887 -15.2405 0.445179 -4.9638 -13.2046 0.298377 2.21086 
-7.87648 96.6813 138.109 -168.322 -76.8429 -171.284 -173.027 -8.36214 85.184 -28.7132 9.44489 -2.17782 84.0697 14.8613 -0.417233 14.9372 -9.95964 6.79369 173.813 16.3048 89.1486 -20.7237 -2.65987 1.1552 60.855 0.179511 0.386228 21.0079 1.95419 4.95003 0.0827538 8.69584 -90.0805 9.48234 0.128756 -0.170469 -2.1886 0.121133 -0.175975 -24.7238 0.174032 -0.123892 -4.71116 0.174037 -0.123892 91.3145 -29.5373 -104.307 39.1572 -12.3485 -1.19206 -14.9295 -12.0973 -27.4945 -8.58036 -0.0111065 -5.36974 -88.2225 -46.3766 80.6935 -15.2178 23.1848 -20.0625 7.18498 -5.15374 -10.9788 -2.34174 -0.0885637 -3.93775 -16.4017 0.477569 -2.9495 -12.2393 0.349201 1.70346 
-6.75324 98.3868 131.904 -156.853 -75.7138 -158.524 -174.748 -5.91307 83.9055 -25.0409 5.1284 -1.07398 78.6289 10.588 -1.11018 13.5746 -11.2825 7.7487 174.601 17.1675 88.4893 -38.9727 -9.50988 -1.24983 63.1573 -0.777978 -0.843228 20.273 2.21304 5.08408 0.496266 8.7401 -90.2947 9.39548 0.85713 -0.646985 -2.27537 0.82782 -0.684092 -24.8122 1.01193 -0.359464 -4.79956 1.01194 -0.359463 90.8966 -27.4379 -105.935 39.359 -13.2343 -1.89859 -14.4607 -13.2744 -25.9123 -9.65563 -0.099567 -4.16755 -87.5085 -47.6951 82.0536 -19.594 24.6419 -10.396 6.673 -7.78929 -14.5634 -1.37115 -0.0851676 -4.14387 -19.46 0.600496 0.951809 -11.2378 0.641341 0.0288691 
-6.32887 98.9232 126.827 -146.701 -74.9315 -148.694 -175.482 -2.81007 82.9306 -22.9892 2.73795 -1.0567 75.0818 7.82826 -0.89358 12.2311 -11.5559 6.97971 174.778 13.3802 86.0898 -56.401 -12.5444 -3.95351 64.4658 -1.68352 -1.31017 20.4227 2.08618 5.27788 0.885267 8.62437 -90.2384 9.62963 1.65731 -0.601131 -2.04043 1.62926 -0.673515 -24.584 1.76133 -0.075107 -4.57139 1.76133 -0.07511 90.1321 -26.8328 -107.755 39.4319 -13.273 -0.262275 -15.3998 -12.9069 -28.3776 -9.56328 -0.123212 -3.86864 -86.1877 -47.9913 84.1406 -26.1576 24.053 0.584774 7.32788 -7.44241 -19.3313 -1.92629 -0.0863312 -3.17573 -21.4404 0.633893 2.96612 -9.70192 0.843316 -1.04309 
-6.4432 98.5671 122.305 -141.209 -74.4645 -144.797 -175.032 1.02065 82.3448 -23.684 1.82907 -2.33725 72.5956 5.74196 -1.50604 10.7575 -11.2125 5.19269 173.575 3.8125 82.0006 -62.2681 -17.0212 -6.31707 64.2507 -2.01825 -1.6362 21.7908 1.18695 6.36955 1.28807 8.54279 -89.9338 9.79091 2.5976 -0.0753711 -1.87746 2.59176 -0.189704 -24.4324 2.50008 0.709301 -4.41974 2.50009 0.7093 90.4543 -26.8082 -107.098 40.202 -12.9584 -0.217647 -16.2283 -14.4098 -28.7561 -9.78891 -0.0683276 -4.58091 -85.8685 -48.3052 84.6797 -29.6585 21.7877 6.2876 7.29835 -7.08381 -15.858 -3.1081 -0.0908347 -4.05696 -21.7727 0.374735 2.02271 -9.81052 0.545051 -1.09755 
-7.19137 98.1082 116.584 -139.221 -74.6725 -143.606 -174.59 5.76052 82.8021 -24.4011 2.41301 -3.04547 69.7602 3.99255 -1.67927 7.66505 -12.5999 4.73262 171.685 -7.66273 80.7102 -54.486 -24.6642 -8.03547 67.3041 -4.87005 -2.9937 22.7318 0.296338 8.22733 1.51813 8.5246 -89.7873 9.82439 3.12249 0.172193 -1.8428 3.12704 0.0344587 -24.4052 2.92626 1.10347 -4.39257 2.92625 1.10347 90.8536 -25.926 -106.619 41.0501 -14.2602 -1.87492 -14.7836 -13.9337 -26.3642 -10.1323 -0.0654957 -4.64398 -85.8375 -49.9446 84.9691 -30.8954 18.1874 9.83214 7.54714 -7.59824 -14.8968 -2.90521 -0.100268 -2.52887 -22.2026 0.0497341 1.39264 -9.77852 0.207504 -1.4733 
-8.38783 97.3559 108.594 -137.634 -76.3532 -140.749 -174.896 12.7517 84.9303 -23.7701 3.92407 -2.27852 63.904 0.627251 -1.76085 7.0227 -12.6245 4.25649 170.082 -14.703 83.1923 -36.0118 -20.4549 -5.4448 69.7688 -7.0028 -4.00282 38.104 -5.1511 6.40602 1.60232 8.48997 -89.8372 9.89386 3.2676 0.0606343 -1.77298 3.26709 -0.0833917 -24.3386 3.09815 1.04084 -4.32594 3.09814 1.04083 90.4317 -25.8855 -107.523 40.544 -13.8822 -2.53056 -15.6448 -12.9263 -28.9186 -10.0576 -0.122075 -3.95158 -85.6971 -49.7703 85.1567 -31.6861 16.2705 9.75779 8.07732 -7.49044 -17.7122 -4.44087 -0.0891664 -3.91192 -21.3584 -0.107413 0.892814 -9.52404 0.0325416 -1.88509 
-9.49421 96.6193 99.225 -148.049 -78.6013 -148.194 -175.803 17.38 88.0883 -19.4517 8.01021 -0.994836 61.4738 0.0140546 -0.718916 12.0411 -10.7164 5.48631 169.581 -15.8649 87.0542 -26.1244 -17.156 -1.22915 76.7042 -11.483 -2.60539 38.2581 -4.65166 3.3051 1.4106 8.68279 -90.2467 9.52231 2.70134 -0.698437 -2.14605 2.66799 -0.816733 -24.7042 2.78628 0.146353 -4.69155 2.78629 0.146352 89.9237 -25.5562 -108.743 38.1732 -12.4689 -3.51319 -17.2934 -13.6415 -31.2941 -11.0767 -0.121313 -4.06717 -85.8178 -53.2116 85.4539 -25.056 20.2121 4.13897 7.22495 -8.49086 -19.2885 -3.39616 -0.0876878 -4.40236 -19.7982 -0.34986 2.58159 -9.42269 -0.126989 -2.78035 
-10.4839 97.2414 91.4656 175.736 -80.635 175.915 -176.383 15.1949 87.4434 -10.4969 7.51103 -1.11945 64.682 4.10389 -0.0566967 16.1035 -10.8144 9.32581 170.434 -12.0536 90.3687 -24.6667 -10.6105 1.59629 78.4348 -11.8338 -2.98006 32.5602 -3.05162 6.78307 0.823923 8.85106 -90.3876 9.17718 1.46978 -0.872928 -2.49327 1.42993 -0.936782 -25.0344 1.66415 -0.390756 -5.0218 1.66415 -0.390755 90.1898 -26.1526 -107.924 37.3144 -11.643 -3.62525 -16.659 -14.1206 -29.2289 -10.9261 -0.0877754 -4.4217 -86.5942 -51.2085 84.0251 -22.0246 22.1388 -3.72614 7.37635 -7.17849 -16.9356 -3.88804 -0.0991234 -3.72008 -20.9005 -0.795566 0.530365 -9.69644 -0.698672 -1.64789 
-11.408 98.929 85.0137 167.137 -80.6872 165.671 -174.877 17.2162 87.1065 -22.879 -2.01938 -1.3499 66.0854 3.58579 -1.6412 15.2021 -9.36204 6.05976 171.571 -9.34698 90.8894 -21.045 -7.69125 1.098 75.762 -9.18198 -1.32777 28.0649 -1.2313 6.22899 0.58182 8.88592 -90.2504 9.10507 1.04855 -0.57041 -2.5656 1.02242 -0.616014 -25.104 1.1715 -0.228871 -5.09131 1.17149 -0.228877 90.5913 -26.0628 -107.117 39.0749 -11.9142 -0.839648 -15.8405 -13.8373 -28.0267 -10.1244 -0.0679626 -4.60586 -87.0781 -49.2717 82.9881 -17.9142 25.533 -7.68193 6.3845 -8.76389 -19.7472 -4.03407 -0.0933475 -4.29133 -20.808 -0.715804 -0.75522 -10.6008 -0.72338 -0.621338 
-11.8965 99.5828 79.8428 169.517 -82.4637 166.769 -173.654 16.0736 88.4098 -38.028 5.61077 -0.764056 68.8359 5.16641 -0.247036 17.3859 -8.85545 7.22169 172.17 -4.56008 90.4788 -20.1561 -7.79792 0.661843 73.9999 -7.0334 -0.462456 26.425 -0.677763 6.55456 0.33298 8.66999 -90.0643 9.53406 0.634938 -0.175947 -2.13676 0.626576 -0.203731 -24.6731 0.658456 0.0230239 -4.66049 0.658456 0.0230172 91.0708 -26.5984 -105.894 40.9628 -12.6785 1.60424 -15.1925 -13.2135 -27.5323 -9.39681 -0.0409559 -4.89973 -86.763 -47.4823 83.1687 -16.1912 22.1197 -9.23458 7.09782 -8.81805 -21.5356 -1.48637 -0.0870795 -3.84904 -20.0817 0.258616 0.0777345 -11.8022 0.241979 0.33376 
-11.8555 99.9261 75.6129 177.21 -84.0935 175.003 -172.593 9.9598 90.8021 -46.8816 10.3961 0.582136 70.7093 6.20519 -0.228216 16.4995 -10.1484 8.56715 172.607 -0.534166 91.2012 -19.3054 -9.11505 1.11612 71.7771 -5.73765 0.176628 26.406 -0.264645 5.01992 0.104593 8.36868 -90.1604 10.1367 0.135344 -0.329256 -1.53425 0.120725 -0.334898 -24.0692 0.228038 -0.273362 -4.05655 0.228049 -0.273352 91.353 -26.5992 -105.301 42.6941 -11.6025 4.06967 -14.2194 -12.106 -26.2175 -9.51105 -0.0811188 -4.40456 -86.3839 -47.4585 83.7519 -15.7769 18.3882 -9.77069 7.67146 -8.74888 -22.0633 -1.42182 -0.0920125 -4.47136 -21.3969 1.24941 2.27402 -12.3786 1.32337 0.778436 
-11.2746 99.8872 72.266 179.074 -83.8429 177.423 -171.241 -0.587459 94.0358 -45.7073 14.5684 1.48257 70.1778 6.29174 0.827706 12.3238 -10.4157 5.27088 172.157 1.41764 90.8966 -19.2715 -9.50332 1.98045 70.8136 -5.71645 -0.114593 25.5463 -0.490124 7.12706 -0.112824 8.23262 -90.3141 10.4073 -0.368648 -0.591685 -1.26375 -0.394326 -0.574894 -23.7979 -0.173779 -0.67512 -3.78531 -0.173782 -0.675119 91.7703 -26.2286 -104.56 44.4376 -11.0655 6.40893 -14.1319 -12.1795 -25.9837 -9.34297 -0.0788593 -4.41691 -86.4788 -47.5662 83.6227 -16.0916 17.3373 -10.0307 9.0897 -6.38736 -23.1421 -0.276781 -0.0715028 -3.32921 -22.3366 1.77951 3.73708 -12.5566 1.92474 1.27158 
-10.3945 99.4497 68.514 160.736 -83.7914 160.42 -169.089 -9.233 97.4597 -38.1043 21.0945 1.89779 70.9565 7.44081 0.363662 16.9532 -9.88956 8.56588 172.646 5.54718 91.8111 -22.2913 -8.27682 2.39124 69.9418 -4.61788 -0.23283 24.7174 -0.157123 7.06437 -0.383554 8.07201 -90.6066 10.7244 -1.04337 -1.11094 -0.946517 -1.09125 -1.06394 -23.4795 -0.661292 -1.37312 -3.46687 -0.661286 -1.37311 91.9162 -26.3263 -104.215 45.0444 -10.2261 7.57345 -14.2526 -12.7999 -25.5727 -9.44996 -0.105423 -4.08071 -86.4657 -47.93 83.702 -17.0218 18.2346 -10.7404 9.92324 -4.91022 -24.8362 -2.65593 -0.0915459 -4.55397 -22.2122 1.80254 4.24927 -13.0801 1.92115 1.80727 
-8.9794 98.917 63.2345 140.847 -81.9953 141.416 -167.718 -12.8811 99.7392 -30.9738 26.711 1.78994 71.1524 7.65247 -0.796378 21.6644 -7.47658 8.88843 172.641 9.62563 91.963 -24.2866 -5.87259 2.7933 68.0232 -2.87671 0.666274 23.344 0.584029 6.35073 -0.601637 8.06366 -90.8154 10.7336 -1.57393 -1.47687 -0.937142 -1.6374 -1.40618 -23.4695 -1.05739 -1.88154 -3.45689 -1.0574 -1.88154 92.0401 -26.4584 -103.905 45.2865 -9.42965 7.28377 -14.4937 -12.385 -26.0388 -9.10385 -0.088706 -4.26796 -86.6631 -48.0267 83.4136 -17.7753 19.4552 -12.1038 10.3714 -3.90178 -24.9865 -2.85212 -0.0927174 -4.05847 -21.8419 1.452 3.57877 -13.2108 1.51719 1.71424 
